<svg xmlns="http://www.w3.org/2000/svg" version="1.1" xmlns:xlink="http://www.w3.org/1999/xlink" xmlns:svgjs="http://svgjs.dev/svgjs" width="100%" height="100%" viewBox="0 0 1000 600"><rect width="1000" height="600" x="0" y="0" fill="#B9E5B9 "/><g><rect width="333.3333333333333" height="333.3333333333333" rx="13.333333333333334" ry="13.333333333333334" y="179.7048965562309" fill="#073607" transform="matrix(0.793738047582684,0,0,0.793738047582684,0,25.07169529818998)" x="157.48268127441406"/><path d="M190.09712467455 421.3715654085742L190.09712467455 421.3715654085742Q187.36825158173062 421.3715654085742 187.36825158173062 417.35161257291554L187.36825158173062 417.35161257291554Q187.36825158173062 415.6790774515101 187.8964205674376 412.5980917015528Q188.42458955314459 409.54644867302363 188.62998860314173 405.526495837365L188.62998860314173 405.526495837365Q189.04078670313606 394.11217720180866 193.70627941021434 366.2365918450517L193.70627941021434 366.2365918450517Q194.55721833163113 362.0112399593959 195.4961854173324 357.6685171880274Q196.4351525030337 353.3551371380871 197.49149047444763 348.68964443100884L197.49149047444763 348.68964443100884L204.68045722434812 319.9631201528351Q205.53139614576492 314.88682934576246 206.58773411717888 308.5488015172788Q207.64407208859282 302.21077368879503 208.7004100600068 294.4056097889031L208.7004100600068 294.4056097889031L193.06073953879468 294.4056097889031Q190.74266454596963 294.4056097889031 187.9844487317221 295.25654871031986L187.9844487317221 295.25654871031986Q184.40463671748594 296.31288668173386 182.93750064607767 296.31288668173386L182.93750064607767 296.31288668173386Q181.2356228032441 296.31288668173386 179.1229468604162 296.40091484601834Q177.0102709175883 296.518285731731 174.89759497476038 296.518285731731L174.89759497476038 296.518285731731Q170.46684403910743 296.518285731731 166.97506018915576 295.66734681031426Q163.4832763392041 294.8164078888974 163.4832763392041 291.64739397465553L163.4832763392041 291.64739397465553Q163.4832763392041 285.3093661461719 167.50322917486275 285.3093661461719L167.50322917486275 285.3093661461719Q170.6722430891046 285.3093661461719 175.95393294617435 284.69316899618036L175.95393294617435 284.69316899618036Q178.71214876042188 284.4584272247551 180.7074538175371 284.3703990604706Q182.70275887465235 284.2530281747579 184.19923766748877 284.2530281747579L184.19923766748877 284.2530281747579L189.04078670313606 284.04762912476076L194.3224765602058 283.8422300747636Q198.5478284458616 283.6368310247665 202.3623822315231 283.72485918905096Q206.17693601718457 283.8422300747636 209.75674803142073 284.04762912476076L209.75674803142073 284.04762912476076L233.8471223239444 284.69316899618036Q234.90346029535834 284.69316899618036 237.7497042738904 284.4584272247551Q240.59594825242243 284.2530281747579 245.02669918807538 283.8422300747636L245.02669918807538 283.8422300747636Q253.91754378080947 283.19669020334396 257.2919567450484 283.19669020334396L257.2919567450484 283.19669020334396Q259.8154307878707 283.19669020334396 259.8154307878707 287.21664303900263L259.8154307878707 287.21664303900263Q259.8154307878707 293.76006991748346 255.8248206736402 293.76006991748346L255.8248206736402 293.76006991748346Q243.35416406666997 293.76006991748346 237.63233338817776 293.76006991748346Q231.93984543111367 293.76006991748346 232.9961834025276 293.55467086748627L232.9961834025276 293.55467086748627Q228.7708315168718 293.9654689674806 224.42810874550338 294.200210738906Q220.11472869556306 294.4056097889031 215.88937680990728 294.4056097889031L215.88937680990728 294.4056097889031Q215.03843788849048 300.7436376173868 213.77670086707937 307.169693610155Q212.51496384566826 313.62509232435133 211.01848505283183 320.37391825282936L211.01848505283183 320.37391825282936Q209.96214708141787 325.0394109599076 208.28961196001245 332.31640587409265Q206.58773411717888 339.6227435097058 204.47505817435098 349.54058335242564L204.47505817435098 349.54058335242564Q203.00792210294273 354.8222732094954 200.04430723869802 367.29292981646563L200.04430723869802 367.29292981646563Q199.83890818870088 369.4056057592935 199.19336831728123 372.8973896092452Q198.5478284458616 376.3598307377687 197.72623224587298 381.23072249484414L197.72623224587298 381.23072249484414Q196.87529332445618 384.399736409086 196.87529332445618 390.09222436615005L196.87529332445618 390.09222436615005Q196.87529332445618 395.3739142232198 196.96332148874066 398.8656980731715Q197.08069237445335 402.35748192312315 196.87529332445618 403.4138198945371L196.87529332445618 403.4138198945371Q196.4351525030337 405.526495837365 195.90698351732672 408.49011070160964Q195.37881453161975 411.45372556585437 194.76261738162827 415.44433568008486L194.76261738162827 415.44433568008486Q193.91167846021148 421.3715654085742 190.09712467455 421.3715654085742ZM273.9879652376745 406.5828338087789L273.9879652376745 406.5828338087789Q269.3224725305962 406.78823285877604 266.79899848777404 401.095744901712L266.79899848777404 401.095744901712Q266.3882003877797 400.0394069302981 265.74266051636005 397.4865901660477Q265.09712064494045 394.96311612322546 264.04078267352645 390.94316328756685L264.04078267352645 390.94316328756685Q263.21918647353783 385.6614734304971 261.3119095807071 386.71781140191104L261.3119095807071 386.71781140191104Q257.9374966164681 391.9995012589808 251.5994687879844 398.3375290874645L251.5994687879844 398.3375290874645Q243.5595631166671 406.37743475878176 239.53961028100846 406.37743475878176L239.53961028100846 406.37743475878176Q235.1088593453555 406.37743475878176 231.93984543111367 399.59926610887555L231.93984543111367 399.59926610887555Q229.18162961686613 394.31757625180586 229.18162961686613 389.47602721615857L229.18162961686613 389.47602721615857Q229.18162961686613 373.19081682352686 233.40698150252194 360.95490198798194L233.40698150252194 360.95490198798194Q234.46331947393588 358.40208522373155 236.57599541676376 358.40208522373155L236.57599541676376 358.40208522373155Q238.48327230959453 358.40208522373155 240.1851501524281 360.3093621165623Q241.8576852738335 362.216639009393 241.8576852738335 364.5347140022181L241.8576852738335 364.5347140022181Q241.8576852738335 365.7964510236292 240.1851501524281 369.6110048092907L240.1851501524281 369.6110048092907Q236.16519731676948 377.41616870918267 236.16519731676948 387.1579522233335L236.16519731676948 387.1579522233335Q236.16519731676948 397.721331937473 240.1851501524281 397.721331937473L240.1851501524281 397.721331937473Q242.09242704525886 397.721331937473 249.48679284515651 391.5887031589865L249.48679284515651 391.5887031589865Q262.5736466021182 380.37978357342735 268.26613455918226 362.42203805939016L268.26613455918226 362.42203805939016Q269.3224725305962 359.898564016568 271.66989024484946 359.898564016568L271.66989024484946 359.898564016568Q275.45510130908275 359.898564016568 275.45510130908275 363.0675779308098L275.45510130908275 363.0675779308098Q275.45510130908275 365.18025387363775 274.9269323233758 367.7037279164599Q274.3987633376688 370.2565446807103 273.3424253662549 373.4255585949522L273.3424253662549 373.4255585949522Q272.4914864448381 376.594572509194 272.08068834484374 379.11804655201627Q271.66989024484946 381.6415205948384 271.66989024484946 383.75419653766636L271.66989024484946 383.75419653766636Q271.66989024484946 385.25067533050276 271.8752892948466 387.245980387618Q272.08068834484374 389.27062816616143 272.4914864448381 391.5887031589865L272.4914864448381 391.5887031589865Q273.547824416252 397.92673098747014 274.83890415909127 398.98306895888413L274.83890415909127 398.98306895888413Q274.83890415909127 398.98306895888413 277.0396082662037 397.80936010175753Q279.2696550947443 396.66499396605906 282.1158990732763 395.2858860589353Q284.9621430518083 393.9067781518115 286.98679083035165 392.7330692946849Q288.9820958874669 391.5887031589865 288.9820958874669 391.5887031589865L288.9820958874669 391.5887031589865Q291.0947718302948 391.5887031589865 291.0947718302948 393.2612382803919L291.0947718302948 393.2612382803919Q291.0947718302948 394.96311612322546 287.6029879803432 398.13213003746733Q284.1112041303915 401.30114395170915 280.120594016161 403.8246179945314Q276.1006411805024 406.37743475878176 273.9879652376745 406.5828338087789ZM305.47270533009583 420.9607673085799L305.47270533009583 420.9607673085799Q298.28373858019535 421.1661663585771 294.1464148588241 410.6027866444376Q290.0384338588809 400.0394069302981 290.0384338588809 378.91264750201907L290.0384338588809 378.91264750201907Q290.0384338588809 366.85278899504317 292.0337389159961 351.9760292309634Q294.05838669453954 337.0699267454554 298.07833953019815 319.1121812314183L298.07833953019815 319.1121812314183Q308.40697747291233 271.3715734677934 322.9903100227105 271.3715734677934L322.9903100227105 271.3715734677934Q328.71214070120266 271.3715734677934 331.23561474402493 281.72955413193574L331.23561474402493 281.72955413193574Q333.14289163685567 289.53471803182765 332.49735176543606 295.8727458603114L332.49735176543606 295.8727458603114Q330.38467582260813 316.3833081385989 308.2015784229152 352.06405739524786L308.2015784229152 352.06405739524786Q306.7344423515069 353.76593523808145 304.7097945729635 356.524151052329Q302.7144895158483 359.25302414514834 299.95627370160076 363.0675779308098L299.95627370160076 363.0675779308098Q299.5454756016064 367.9091269664571 299.2227056658966 372.5746196735354Q298.8999357301868 377.2107696591855 298.8999357301868 381.4361215448413L298.8999357301868 381.4361215448413Q298.8999357301868 389.03588639473605 300.1910154730261 397.0757920660534L300.1910154730261 397.0757920660534Q302.50909046585116 409.54644867302363 307.14524045150125 409.54644867302363L307.14524045150125 409.54644867302363Q311.5759913871542 409.54644867302363 316.0360850442353 403.8246179945314L316.0360850442353 403.8246179945314L322.1393711012937 393.9067781518115Q323.19570907270764 392.2049003089779 324.89758691554124 392.2049003089779L324.89758691554124 392.2049003089779Q327.0102628583691 392.2049003089779 327.0102628583691 394.31757625180586L327.0102628583691 394.31757625180586Q327.0102628583691 394.7577170732283 326.89289197265646 395.16851517322266Q326.804863808372 395.6086559946451 326.5994647583748 396.0194540946394L326.5994647583748 396.0194540946394Q324.2520470441216 401.30114395170915 322.4621410370035 404.998326851658Q320.6722350298854 408.69550975160683 319.20509895847715 410.8081856944347L319.20509895847715 410.8081856944347Q312.63232935856814 420.9607673085799 305.47270533009583 420.9607673085799ZM322.7849109727133 281.9349531819329L322.7849109727133 281.9349531819329Q308.2015784229152 288.2729810104166 301.0126116730147 351.6532592952535L301.0126116730147 351.6532592952535Q301.6581515444343 351.0077194238339 302.91988856584544 349.12978525243136L302.91988856584544 349.12978525243136Q326.36472298694946 315.73776826717926 326.36472298694946 295.8727458603114L326.36472298694946 295.8727458603114Q326.36472298694946 294.4056097889031 326.1593239369523 292.615703781785Q325.9539248869552 290.7964550532388 325.5431267869609 288.4783800604137L325.5431267869609 288.4783800604137Q324.2520470441216 282.7858921033496 322.7849109727133 281.9349531819329ZM373.6945326505801 406.5828338087789L373.6945326505801 406.5828338087789Q369.0583826649299 406.78823285877604 366.5055659006796 401.095744901712L366.5055659006796 401.095744901712Q366.0947678006853 400.0394069302981 365.4492279292656 397.4865901660477Q364.83303077927417 394.96311612322546 363.7766928078602 390.94316328756685L363.7766928078602 390.94316328756685Q362.92575388644343 385.6614734304971 361.0184769936127 386.71781140191104L361.0184769936127 386.71781140191104Q357.6440640293737 391.9995012589808 351.30603620088993 398.3375290874645L351.30603620088993 398.3375290874645Q343.2661305295727 406.37743475878176 339.2755204153422 406.37743475878176L339.2755204153422 406.37743475878176Q334.8154267582611 406.37743475878176 331.6464128440192 399.59926610887555L331.6464128440192 399.59926610887555Q328.9175397511999 394.31757625180586 328.9175397511999 389.47602721615857L328.9175397511999 389.47602721615857Q328.9175397511999 373.19081682352686 333.14289163685567 360.95490198798194L333.14289163685567 360.95490198798194Q334.19922960826966 358.40208522373155 336.31190555109754 358.40208522373155L336.31190555109754 358.40208522373155Q338.2191824439283 358.40208522373155 339.8917175653337 360.3093621165623Q341.5935954081673 362.216639009393 341.5935954081673 364.5347140022181L341.5935954081673 364.5347140022181Q341.5935954081673 365.7964510236292 339.8917175653337 369.6110048092907L339.8917175653337 369.6110048092907Q335.8717647296751 377.41616870918267 335.8717647296751 387.1579522233335L335.8717647296751 387.1579522233335Q335.8717647296751 397.721331937473 339.8917175653337 397.721331937473L339.8917175653337 397.721331937473Q341.79899445816443 397.721331937473 349.19336025806206 391.5887031589865L349.19336025806206 391.5887031589865Q362.2802140150238 380.37978357342735 368.00204469351604 362.42203805939016L368.00204469351604 362.42203805939016Q369.0583826649299 359.898564016568 371.37645765775505 359.898564016568L371.37645765775505 359.898564016568Q375.1910114434165 359.898564016568 375.1910114434165 363.0675779308098L375.1910114434165 363.0675779308098Q375.1910114434165 365.18025387363775 374.66284245770953 367.7037279164599Q374.13467347200253 370.2565446807103 373.0783355005886 373.4255585949522L373.0783355005886 373.4255585949522Q372.2273965791718 376.594572509194 371.78725575774934 379.11804655201627Q371.37645765775505 381.6415205948384 371.37645765775505 383.75419653766636L371.37645765775505 383.75419653766636Q371.37645765775505 385.25067533050276 371.5818567077522 387.245980387618Q371.78725575774934 389.27062816616143 372.2273965791718 391.5887031589865L372.2273965791718 391.5887031589865Q373.28373455058573 397.92673098747014 374.54547157199687 398.98306895888413L374.54547157199687 398.98306895888413Q374.54547157199687 398.98306895888413 376.77551840053746 397.80936010175753Q378.9762225076498 396.66499396605906 381.82246648618184 395.2858860589353Q384.69805318614203 393.9067781518115 386.6933582432573 392.7330692946849Q388.6886633003725 391.5887031589865 388.6886633003725 391.5887031589865L388.6886633003725 391.5887031589865Q390.8013392432004 391.5887031589865 390.8013392432004 393.2612382803919L390.8013392432004 393.2612382803919Q390.8013392432004 394.96311612322546 387.3388981146769 398.13213003746733Q383.8471142647253 401.30114395170915 379.8271614290666 403.8246179945314Q375.80720859340795 406.37743475878176 373.6945326505801 406.5828338087789ZM393.55955505744794 407.43377273019576L393.55955505744794 407.43377273019576Q389.5396022217893 407.43377273019576 389.5396022217893 403.4138198945371L389.5396022217893 403.4138198945371Q389.74500127178646 394.5523180232312 391.44687911462006 382.08166141626094L391.44687911462006 382.08166141626094Q392.50321708603406 374.04175574494366 393.3541560074508 368.55466683787677Q394.2050949288676 363.0675779308098 394.4104939788648 360.3093621165623L394.4104939788648 360.3093621165623Q394.8212920788591 357.3457472523176 397.3741088431094 357.3457472523176L397.3741088431094 357.3457472523176Q399.6921838359345 357.3457472523176 399.6921838359345 360.10396306656514L399.6921838359345 360.10396306656514Q399.6921838359345 367.7037279164599 399.6921838359345 372.4572487878227Q399.6921838359345 377.2107696591855 399.48678478593735 379.11804655201627L399.48678478593735 379.11804655201627L399.48678478593735 379.52884465201055Q399.48678478593735 381.6415205948384 401.15931990734276 381.6415205948384L401.15931990734276 381.6415205948384Q402.01025882875956 381.6415205948384 402.8611977501763 380.37978357342735L402.8611977501763 380.37978357342735Q410.4609626000712 368.55466683787677 419.3224644713771 368.55466683787677L419.3224644713771 368.55466683787677Q423.3424173070357 368.55466683787677 425.24969419986644 374.04175574494366L425.24969419986644 374.04175574494366Q425.66049229986083 375.09809371635754 426.42340305699304 377.9443376948896Q427.1569710926972 380.8199243948498 428.00791001411403 385.4560743804999L428.00791001411403 385.4560743804999Q428.62410716410545 388.2142901947475 430.73678310693333 388.2142901947475L430.73678310693333 388.2142901947475Q431.99852012834447 388.2142901947475 434.11119607117234 386.71781140191104L434.11119607117234 386.71781140191104Q435.16753404258634 386.10161425191956 437.39758087112693 384.399736409086Q439.6276276996674 382.6978585662524 443.0020406639064 379.968985473433L443.0020406639064 379.968985473433Q457.35063144227934 368.7600658878739 460.31424630652396 368.7600658878739L460.31424630652396 368.7600658878739Q465.39053711359657 368.7600658878739 468.14875292784404 384.60513545908316L468.14875292784404 384.60513545908316Q470.6722269706663 398.13213003746733 473.63584183491093 398.13213003746733L473.63584183491093 398.13213003746733Q474.4867807563278 398.13213003746733 477.2156538491472 398.777669908887L477.2156538491472 398.777669908887Q479.76847061339754 398.98306895888413 480.38466776338896 398.777669908887L480.38466776338896 398.777669908887Q480.8248085848114 398.5429281374617 481.2356066848058 398.45489997317713Q481.6464047848001 398.3375290874645 482.08654560622256 398.3375290874645L482.08654560622256 398.3375290874645Q484.81541869904197 398.3375290874645 484.81541869904197 400.89034585171487L484.81541869904197 400.89034585171487Q484.81541869904197 403.8246179945314 480.17926871339193 405.73189488736216L480.17926871339193 405.73189488736216Q476.8048557491528 407.22837368019856 471.7285649420803 406.5828338087789L471.7285649420803 406.5828338087789Q466.85767318500484 406.5828338087789 463.68865927076297 400.0394069302981L463.68865927076297 400.0394069302981Q462.42692224935183 397.0757920660534 459.9034482065297 387.77414937332503L459.9034482065297 387.77414937332503Q458.2015703636961 381.025323444847 456.29429347086534 381.025323444847L456.29429347086534 381.025323444847Q453.77081942804307 381.025323444847 448.8999276709677 383.75419653766636Q444.0583786353204 386.5124123519139 439.18748687824495 390.09222436615005Q434.34593784259766 393.7013791018144 431.38232297835305 396.87039301605625L431.38232297835305 396.87039301605625Q430.5313840569362 397.92673098747014 428.2133090641112 397.92673098747014L428.2133090641112 397.92673098747014Q423.54781635703296 397.92673098747014 422.9316192070414 395.81405504464226L422.9316192070414 395.81405504464226Q418.9116663713828 380.37978357342735 416.1534505571352 380.37978357342735L416.1534505571352 380.37978357342735Q409.19922557866005 380.37978357342735 403.71213667159316 389.27062816616143L403.71213667159316 389.27062816616143Q402.2156578787567 391.5887031589865 400.7485218073484 395.3739142232198Q399.252043014512 399.1884680088813 397.5795078931066 404.67555691594816L397.5795078931066 404.67555691594816Q396.7285689716898 406.78823285877604 396.0830291002702 406.37743475878176L396.0830291002702 406.37743475878176Q395.0266911288562 407.43377273019576 393.55955505744794 407.43377273019576Z " fill="white" transform="matrix(0.793738047582684,0,0,0.793738047582684,0,25.07169529818998)"/><path d="M576.328453477405 369.045986460265L576.328453477405 369.045986460265Q573.6880835022625 369.045986460265 574.2469939349569 364.47833913100396L574.2469939349569 364.47833913100396L576.328453477405 352.68340172379817Q576.7331817217698 350.87176101092666 577.369183248629 348.1735727151607Q577.985912001947 345.45611164585347 578.6797318494296 341.85210299365167L578.6797318494296 341.85210299365167Q578.9688234525474 338.67209535935604 579.6626433000301 333.60335591802414Q580.3564631475128 328.53461647669224 581.3201018245721 321.32659917228875L581.3201018245721 321.32659917228875L583.5364707818085 308.14402207011756Q584.2302906292912 305.7734709245517 585.2132020798917 301.9574617633969Q586.1768407569509 298.1414526022421 587.429571037128 293.0148948402867L587.429571037128 293.0148948402867Q588.258300299399 288.8519757553905 590.4746692566355 290.1047060355676L590.4746692566355 290.1047060355676L589.7808494091528 284.8239660852827Q589.0870295616701 282.31850552492847 588.6823013173051 280.1792276618569Q588.258300299399 278.020677025244 587.9884814698224 276.22830908591374L587.9884814698224 276.22830908591374Q587.834299281493 275.8043080680077 587.834299281493 274.6864872026189L587.834299281493 274.6864872026189Q587.834299281493 271.3715701535349 590.0699410122705 271.3715701535349L590.0699410122705 271.3715701535349Q591.1684891041182 271.3715701535349 591.7273995368125 273.1639380928652L591.7273995368125 273.1639380928652Q592.2863099695069 274.97557880573663 592.8452204022012 277.2690388571378Q593.3848580613544 279.5432261349977 593.9437684940489 282.31850552492847L593.9437684940489 282.31850552492847Q594.7724977563198 286.211605780248 595.196498774226 291.62725514532127L595.196498774226 291.62725514532127Q595.4663176038025 294.80726277961696 595.6783181127556 296.888722322065Q595.8903186217087 298.97018186451305 596.025228036497 300.08800272990186L596.025228036497 300.08800272990186Q596.7190478839797 304.9447416622807 597.277958316674 308.20184039074115Q597.8368687493685 311.45893911920155 598.3957791820628 313.27057983207305L598.3957791820628 313.27057983207305Q600.1881471213931 319.93895947732335 604.7750672241954 324.9306078244905L604.7750672241954 324.9306078244905L606.8565267666434 327.57097779963294Q613.5056336383525 320.07386889211165 616.8398234609776 315.9109498072155L616.8398234609776 315.9109498072155Q618.3623725707314 314.099309094344 620.5209232073441 311.2662113837897Q622.6794738439571 308.41384089969415 625.7245720634644 304.3858312295863L625.7245720634644 304.3858312295863Q627.3820305880064 301.74546125444385 632.527861123503 291.20325412741516L632.527861123503 291.20325412741516L632.6627705382914 291.06834471262687Q632.9325893678679 291.06834471262687 633.9155008184684 288.5628841522727L633.9155008184684 288.5628841522727Q635.014048910316 285.382876517977 636.1318697757048 284.2650556525883L636.1318697757048 284.2650556525883L635.7078687577987 284.1301462378Q637.2496906410936 283.01232537241117 638.2133293181529 283.01232537241117L638.2133293181529 283.01232537241117Q639.8707878426949 283.01232537241117 641.952247385143 288.1581559079078L641.952247385143 288.1581559079078Q642.9351588357434 290.23961545035587 642.9351588357434 293.14980425507497L642.9351588357434 293.14980425507497Q642.9351588357434 294.11344293213426 642.7231583267903 295.50108262709966Q642.5111578178373 296.888722322065 642.2413389882607 298.5654536201482L642.2413389882607 298.5654536201482Q641.952247385143 300.2229121446902 641.7595196497311 301.34073301007896Q641.547519140778 302.43928110192655 641.547519140778 302.99819153462096L641.547519140778 302.99819153462096L641.547519140778 303.13310094940925Q641.547519140778 305.079651077069 641.2584275376603 309.53166176508296Q640.9886087080836 313.9643996795557 640.4296982753892 320.90259815438264L640.4296982753892 320.90259815438264Q640.1598794458126 322.1553284345597 639.7358784279065 327.0120673669386Q639.3311501835417 331.8688062993174 638.9071491656355 340.32955388389803L638.9071491656355 340.32955388389803Q638.7722397508472 342.9699238590405 638.6951486566825 345.1092017221121Q638.637330336059 347.2677523587249 638.637330336059 349.0793930715964L638.637330336059 349.0793930715964Q638.637330336059 350.87176101092666 638.6951486566825 352.12449129110377Q638.7722397508472 353.37722157128087 638.9071491656355 354.20595083355187L638.9071491656355 354.20595083355187L639.8707878426949 360.02632844299Q640.0249700310244 360.4503294608961 640.0249700310244 361.14414930837876L640.0249700310244 361.14414930837876Q640.0249700310244 363.91942869830956 636.9605990379757 363.91942869830956L636.9605990379757 363.91942869830956Q635.8620509461282 363.91942869830956 635.5729593430103 363.09069943603856L635.5729593430103 363.09069943603856Q635.3031405134338 361.97287857064975 635.014048910316 360.31542004610776Q634.7442300807394 358.6386887480246 634.4744112511628 356.2874103759999L634.4744112511628 356.2874103759999Q634.0504102332567 347.691753376631 634.0504102332567 343.1048332738288L634.0504102332567 343.1048332738288Q634.0504102332567 340.8884643165924 634.4744112511628 335.2029961219426Q634.8791394955277 329.49825515375153 635.9969603609165 320.34368772168824L635.9969603609165 320.34368772168824Q636.1318697757048 317.85749993487525 636.3438702846579 313.6174897558144Q636.5558707936109 309.3774795767535 636.9605990379757 303.422192552527L636.9605990379757 303.422192552527L638.0784199033645 291.8970739748979Q637.9435104885763 291.62725514532127 637.7893283002468 291.492345730533Q637.6544188854584 291.33816354220346 637.5195094706702 291.20325412741516L637.5195094706702 291.20325412741516Q637.2496906410936 291.20325412741516 636.266779190493 295.0963543827347L636.266779190493 295.0963543827347L636.1318697757048 295.0963543827347Q634.3202290628333 298.5654536201482 632.4507700293383 301.9574617633969Q630.5813109958433 305.3687426801868 628.6347608681835 308.6836597292708L628.6347608681835 308.6836597292708Q625.4547532338878 314.099309094344 619.345284021332 321.03750756917094L619.345284021332 321.03750756917094L612.9659959791993 328.95861749459834Q608.5139852911855 334.2200846713421 606.8565267666434 334.2200846713421L606.8565267666434 334.2200846713421Q605.1797954685603 334.2200846713421 603.7921557735949 332.8324449763767L603.7921557735949 332.8324449763767L601.9997878342646 331.04007703704644L601.4408774015701 330.34625718956374Q597.1430489018858 325.0655172392788 594.6375883415316 318.55131978235795L594.6375883415316 318.55131978235795Q594.0786779088371 316.8745884842748 593.5968585703075 314.87022003599145Q593.1150392317779 312.84657881416695 592.8452204022012 310.63020985693055L592.8452204022012 310.63020985693055Q592.2863099695069 306.4672907720344 591.7273995368125 302.2465533665147Q591.1684891041182 298.00654318745376 591.1684891041182 297.3127233399711L591.1684891041182 297.3127233399711Q590.6095786714237 299.12436405284257 589.9928499181058 302.16946227234996Q589.3761211647878 305.21456049185736 588.3932097141874 309.3774795767535L588.3932097141874 309.3774795767535Q587.9884814698224 311.88294013710765 587.1404794340103 315.7760403924272L587.1404794340103 315.7760403924272Q586.7357511896454 317.5684083317575 586.4466595865276 319.1680485356759Q586.1768407569509 320.76768873959435 585.9070219273744 321.86623683144194L585.9070219273744 321.86623683144194L585.6179303242566 321.86623683144194Q585.34811149468 325.0655172392788 584.7121099678209 330.34625718956374Q584.0953812145028 335.6077243663075 583.1317425374436 342.9699238590405L583.1317425374436 342.9699238590405Q582.7077415195374 344.76229179837077 582.0910127662196 347.5375711883015Q581.4550112393604 350.3128505782323 580.7611913918777 354.20595083355187L580.7611913918777 354.20595083355187Q580.2022809591833 357.6750500709653 578.6797318494296 365.8659788259693L578.6797318494296 365.8659788259693L578.5448224346413 365.8659788259693Q578.1208214167352 369.045986460265 576.328453477405 369.045986460265ZM686.7807186419412 366.2707070703342L686.7807186419412 366.2707070703342Q686.0868987944586 366.2707070703342 685.5279883617642 365.731069411181L685.5279883617642 365.731069411181Q681.7890702947742 361.83796915586146 681.6541608799859 354.34086024834016L681.6541608799859 354.34086024834016Q681.6541608799859 353.78194981564576 681.7890702947742 353.0303116475395Q681.9239797095624 352.25940070589206 681.9239797095624 351.29576202883277L681.9239797095624 351.29576202883277L682.0588891243508 348.3855732241137L682.0588891243508 347.9615722062076Q682.0588891243508 345.45611164585347 680.2665211850205 346.14993149333617L680.2665211850205 346.14993149333617Q677.4912417950896 348.0964816209959 672.8272305981227 351.7775813673625Q668.1824921746969 355.4586811137289 661.6682947177761 360.72014829047265L661.6682947177761 360.72014829047265Q658.8930153278453 363.36051826561516 654.5951868281609 363.36051826561516L654.5951868281609 363.36051826561516Q652.0897262678067 363.36051826561516 650.3551766491 360.6623299698491Q648.6206270303933 357.9448689005419 649.0446280482993 355.4586811137289L649.0446280482993 355.4586811137289Q649.4493562926642 351.8546724615272 651.9548168530184 347.61466228246627Q654.4410046398314 343.3746521034054 658.1221043861979 339.1539146978857Q661.8032041325644 334.9139045188248 666.0432143116253 331.6568057903644Q670.263951717145 328.39970706190394 674.1570519724645 327.0120673669386L674.1570519724645 327.0120673669386Q675.6796010822183 326.4531569342442 677.0672407771837 326.18333810466754Q678.4548804721491 325.8942465015498 679.8425201671143 325.8942465015498L679.8425201671143 325.8942465015498Q685.817079964882 325.8942465015498 685.817079964882 330.05716558644593L685.817079964882 330.05716558644593Q685.817079964882 331.44480528141133 684.6992590994932 331.44480528141133L684.6992590994932 331.44480528141133Q684.2752580815871 331.44480528141133 683.8705298372222 331.38698696078774Q683.4465288193161 331.30989586662304 683.0418005749513 331.04007703704644L683.0418005749513 331.04007703704644Q680.536340014597 328.95861749459834 678.4548804721491 328.95861749459834L678.4548804721491 328.95861749459834Q676.373420929701 328.95861749459834 672.3454112595931 331.44480528141133L672.3454112595931 331.44480528141133Q669.1654036252974 333.3913554090711 666.1010326322489 336.3015442137902Q663.0559344127414 339.2117330185092 660.2806550228107 342.8350144442522L660.2806550228107 342.8350144442522Q657.6402850476683 346.3041136816656 656.1177359379146 349.00230197743167Q654.5951868281609 351.7004902731977 654.306095225043 353.78194981564576L654.306095225043 353.78194981564576Q654.1711858102548 354.34086024834016 654.1711858102548 355.16958951061116L654.1711858102548 355.16958951061116Q654.1711858102548 357.4052312413887 655.9828265231263 357.4052312413887L655.9828265231263 357.4052312413887Q658.1991954803626 357.4052312413887 664.3086646929186 353.37722157128087L664.3086646929186 353.37722157128087Q678.878881490055 343.6637437065232 684.5643496847049 336.1666347990018L684.5643496847049 336.1666347990018Q685.9519893796703 334.3549940861304 687.0505374715179 331.30989586662304L687.0505374715179 331.30989586662304Q687.7443573190006 329.36334573896323 689.9799990497781 329.36334573896323L689.9799990497781 329.36334573896323Q692.4661868365912 329.36334573896323 692.4661868365912 332.13862512889403L692.4661868365912 332.13862512889403Q692.4661868365912 334.3549940861304 690.3847272941431 337.6891839087556L690.3847272941431 337.6891839087556Q687.0505374715179 347.8266627914193 687.0505374715179 351.7004902731977L687.0505374715179 351.7004902731977Q687.3396290746357 357.6750500709653 689.9799990497781 361.27905872316705L689.9799990497781 361.27905872316705Q690.3847272941431 361.70305974107316 690.3847272941431 362.39687958855586L690.3847272941431 362.39687958855586Q690.3847272941431 363.6496098687329 689.131997013966 364.96015846953355Q687.89853950733 366.2707070703342 686.7807186419412 366.2707070703342ZM694.9716473969453 421.37156662458466L694.9716473969453 421.37156662458466Q686.0868987944586 421.37156662458466 686.0868987944586 411.2340877419209L686.0868987944586 411.2340877419209Q686.0868987944586 394.0235009696419 718.6964316261451 372.24526686810185L718.6964316261451 372.24526686810185Q719.3902514736278 371.97544803852526 720.3538901506871 370.99253658792475L720.3538901506871 370.99253658792475Q720.2189807358988 366.9645269178169 720.3538901506871 363.6496098687329Q720.5080723390166 360.31542004610776 720.9128005833815 357.6750500709653L720.9128005833815 357.6750500709653Q719.8142524915339 358.79287093635406 718.6193405319804 359.8914190282017Q717.4437013459681 361.00923989359046 716.0560616510027 362.10778798543805L716.0560616510027 362.10778798543805Q712.1822341692243 365.1721589784866 708.9829537613874 365.1721589784866L708.9829537613874 365.1721589784866Q702.0447552865605 365.1721589784866 702.0447552865605 352.12449129110377L702.0447552865605 352.12449129110377Q702.0447552865605 337.6891839087556 705.2440356943974 330.05716558644593L705.2440356943974 330.05716558644593Q705.9378555418801 328.80443530626883 707.171313048516 328.80443530626883L707.171313048516 328.80443530626883Q709.9465924384467 328.80443530626883 709.9465924384467 332.27353454368233L709.9465924384467 332.27353454368233Q709.9465924384467 334.9139045188248 708.7131349318108 340.19464446910973L708.7131349318108 340.19464446910973Q707.0364036337277 346.9979335291483 707.0364036337277 350.60194218135007L707.0364036337277 350.60194218135007Q707.0364036337277 358.6386887480246 710.5055028711412 358.6386887480246L710.5055028711412 358.6386887480246Q713.2807822610719 358.6386887480246 717.5786107607563 353.64704040085746L717.5786107607563 353.64704040085746Q719.2553420588396 351.8546724615272 720.6429817538049 350.0430317486557Q722.0306214487703 348.2313910357842 722.9942601258296 346.4390230964539L722.9942601258296 346.4390230964539L724.5168092355833 343.7986531213115L727.9859084729967 336.59063581690793L729.1037293383855 334.0851752565538Q729.7975491858682 332.8324449763767 730.915370051257 332.8324449763767L730.915370051257 332.8324449763767Q732.996829593705 332.8324449763767 732.996829593705 334.7789951040365L732.996829593705 334.7789951040365Q732.996829593705 335.0488139336131 732.7077379905872 335.6077243663075L732.7077379905872 335.6077243663075L732.4379191610107 336.0317253842136L732.4379191610107 336.8604546464845Q730.0673680154448 341.5822841640751 728.332818396738 349.6190307307496Q726.5982687780314 357.6750500709653 725.634630100972 369.20016864859446L725.634630100972 369.20016864859446L733.1317390084934 366.6947080882403Q735.0782891361531 366.6947080882403 735.0782891361531 368.91107704547665L735.0782891361531 368.91107704547665Q735.0782891361531 370.16380732565375 733.825558855976 370.4336261552304L733.825558855976 370.4336261552304Q730.7611878629275 371.41653760583085 725.0757196682777 372.93908671558455L725.0757196682777 372.93908671558455Q724.5168092355833 377.5260068183868 723.9771715764301 380.99510605580025Q723.4182611437357 384.4642052932137 722.8593507110412 386.8154836652384L722.8593507110412 386.8154836652384Q719.525160888416 400.4220617853156 713.0109634314953 409.8464480469555L713.0109634314953 409.8464480469555Q704.8200346764913 421.37156662458466 694.9716473969453 421.37156662458466ZM695.1065568117336 417.4784663692651L695.1065568117336 417.4784663692651Q702.3145741161371 417.4784663692651 709.4069547792935 406.377348809542L709.4069547792935 406.377348809542Q712.4520529988009 401.5206098771632 714.4564214470843 396.3940521152077Q716.4800626689088 391.2482215797111 717.4437013459681 385.9867544029674L717.4437013459681 385.9867544029674Q717.5786107607563 384.17511369009594 717.4437013459681 381.95874473285954L717.4437013459681 381.95874473285954Q716.8847909132736 379.4532841725054 715.6513334066377 379.4532841725054L715.6513334066377 379.4532841725054Q715.0924229739434 379.4532841725054 714.3986031264607 379.87728519041144L714.3986031264607 379.87728519041144L714.1095115233429 379.74237577562315Q689.9799990497781 396.10496051209 689.9799990497781 411.36899715670916L689.9799990497781 411.36899715670916Q689.9799990497781 417.4784663692651 695.1065568117336 417.4784663692651ZM774.7609298574549 366.2707070703342L774.7609298574549 366.2707070703342Q774.0671100099722 366.2707070703342 773.5081995772778 365.731069411181L773.5081995772778 365.731069411181Q769.7692815102878 361.83796915586146 769.6150993219583 354.34086024834016L769.6150993219583 354.34086024834016Q769.6150993219583 353.78194981564576 769.7692815102878 353.0303116475395Q769.904190925076 352.25940070589206 769.904190925076 351.29576202883277L769.904190925076 351.29576202883277L770.0391003398644 348.3855732241137L770.0391003398644 347.9615722062076Q770.0391003398644 345.45611164585347 768.2274596269929 346.14993149333617L768.2274596269929 346.14993149333617Q765.4521802370621 348.0964816209959 760.8074418136363 351.7775813673625Q756.1627033902105 355.4586811137289 749.6485059332897 360.72014829047265L749.6485059332897 360.72014829047265Q746.8732265433589 363.36051826561516 742.5561252701333 363.36051826561516L742.5561252701333 363.36051826561516Q740.0699374833204 363.36051826561516 738.3353878646136 360.6623299698491Q736.6008382459069 357.9448689005419 737.0055664902717 355.4586811137289L737.0055664902717 355.4586811137289Q737.4295675081778 351.8546724615272 739.935028068532 347.61466228246627Q742.4212158553449 343.3746521034054 746.1023156017114 339.1539146978857Q749.7834153480779 334.9139045188248 754.0041527535976 331.6568057903644Q758.2441629326586 328.39970706190394 762.1372631879782 327.0120673669386L762.1372631879782 327.0120673669386Q763.6598122977318 326.4531569342442 765.0474519926972 326.18333810466754Q766.4350916876625 325.8942465015498 767.8227313826279 325.8942465015498L767.8227313826279 325.8942465015498Q773.7780184068544 325.8942465015498 773.7780184068544 330.05716558644593L773.7780184068544 330.05716558644593Q773.7780184068544 331.44480528141133 772.6794703150068 331.44480528141133L772.6794703150068 331.44480528141133Q772.2554692971007 331.44480528141133 771.8507410527358 331.38698696078774Q771.4267400348298 331.30989586662304 771.0027390169237 331.04007703704644L771.0027390169237 331.04007703704644Q768.5165512301106 328.95861749459834 766.4350916876625 328.95861749459834L766.4350916876625 328.95861749459834Q764.3536321452145 328.95861749459834 760.3256224751067 331.44480528141133L760.3256224751067 331.44480528141133Q757.1263420672698 333.3913554090711 754.0812438477625 336.3015442137902Q751.036145628255 339.2117330185092 748.2608662383243 342.8350144442522L748.2608662383243 342.8350144442522Q745.6204962631818 346.3041136816656 744.0979471534281 349.00230197743167Q742.5561252701333 351.7004902731977 742.2863064405567 353.78194981564576L742.2863064405567 353.78194981564576Q742.1513970257683 354.34086024834016 742.1513970257683 355.16958951061116L742.1513970257683 355.16958951061116Q742.1513970257683 357.4052312413887 743.9437649650987 357.4052312413887L743.9437649650987 357.4052312413887Q746.1794066958762 357.4052312413887 752.269603134891 353.37722157128087L752.269603134891 353.37722157128087Q766.8398199320275 343.6637437065232 772.5445609002185 336.1666347990018L772.5445609002185 336.1666347990018Q773.9322005951839 334.3549940861304 775.0307486870315 331.30989586662304L775.0307486870315 331.30989586662304Q775.7245685345142 329.36334573896323 777.9409374917506 329.36334573896323L777.9409374917506 329.36334573896323Q780.4463980521047 329.36334573896323 780.4463980521047 332.13862512889403L780.4463980521047 332.13862512889403Q780.4463980521047 334.3549940861304 778.3649385096567 337.6891839087556L778.3649385096567 337.6891839087556Q775.0307486870315 347.8266627914193 775.0307486870315 351.7004902731977L775.0307486870315 351.7004902731977Q775.3198402901493 357.6750500709653 777.9409374917506 361.27905872316705L777.9409374917506 361.27905872316705Q778.3649385096567 361.70305974107316 778.3649385096567 362.39687958855586L778.3649385096567 362.39687958855586Q778.3649385096567 363.6496098687329 777.1122082294795 364.96015846953355Q775.8594779493025 366.2707070703342 774.7609298574549 366.2707070703342ZM825.2748693089031 367.8125289536291L825.2748693089031 367.8125289536291L824.850868290997 367.5234373505113Q823.8872296139377 367.2536185209347 822.0755889010662 364.47833913100396L822.0755889010662 364.47833913100396Q821.9406794862779 363.91942869830956 821.9406794862779 362.10778798543805L821.9406794862779 362.10778798543805Q821.9406794862779 361.27905872316705 821.9406794862779 360.18051063131946Q821.9406794862779 359.0626897659307 822.0755889010662 357.8099594857536L822.0755889010662 357.8099594857536Q822.3454077306428 353.37722157128087 823.3283191812433 344.2226541392176L823.3283191812433 344.2226541392176L824.2919578583026 335.6077243663075L827.6261476809278 322.42514726413634Q826.9323278334451 322.29023784934805 826.3734174007507 322.2131467551833Q825.8145069680563 322.1553284345597 825.2748693089031 322.29023784934805L825.2748693089031 322.29023784934805Q823.4632285960316 322.29023784934805 823.4632285960316 319.38004904462895L823.4632285960316 319.38004904462895Q823.4632285960316 315.9109498072155 825.5446881384797 315.9109498072155L825.5446881384797 315.9109498072155Q828.8788779611049 315.9109498072155 829.2836062054697 315.9109498072155L829.2836062054697 315.9109498072155Q829.7076072233758 314.3884006974618 830.3243359766938 312.0949406460607Q830.960337503553 309.80148059465955 831.9239761806122 306.8912917899405L831.9239761806122 306.8912917899405Q831.9239761806122 306.3323813572461 832.21306778373 304.867650568116Q832.4828866133066 303.422192552527 832.829796537048 302.0923711781852Q833.1767064607893 300.78182257738456 833.1767064607893 300.78182257738456L833.1767064607893 300.78182257738456Q834.0054357230603 296.888722322065 835.2581660032374 287.5992454752134L835.2581660032374 287.5992454752134Q833.870526308272 288.5628841522727 831.4421568420827 290.0276149414028Q829.0137873758932 291.492345730533 825.5446881384797 293.41962308465156L825.5446881384797 293.41962308465156Q825.2748693089031 293.5738052729811 824.7159588762087 293.5738052729811L824.7159588762087 293.5738052729811Q822.6344993337607 293.5738052729811 822.6344993337607 290.5094342799325L822.6344993337607 290.5094342799325Q822.6344993337607 288.1581559079078 824.1570484435143 287.32942664563683L824.1570484435143 287.32942664563683L833.041797046001 281.9137772805636Q837.6094443752621 279.13849789063283 841.7723634601582 277.88576761045573L841.7723634601582 277.88576761045573Q847.4771044283492 276.22830908591374 853.2974820377874 276.22830908591374L853.2974820377874 276.22830908591374Q855.9378520129299 276.22830908591374 858.8480408176489 276.6330373302786L858.8480408176489 276.6330373302786Q864.5335090122987 277.19194776297303 866.4800591399586 277.88576761045573L866.4800591399586 277.88576761045573Q870.3731593952781 278.7144968727267 872.9942565968794 280.6610470003865L872.9942565968794 280.6610470003865Q874.2469868770564 281.48977626265753 876.0586275899279 283.5712358051056L876.0586275899279 283.5712358051056Q876.8873568521989 285.78760476234197 876.8873568521989 289.68070501766147L876.8873568521989 289.68070501766147Q876.6175380226223 291.20325412741516 875.229898327657 294.53744395004037L875.229898327657 294.53744395004037Q874.2469868770564 295.9250836450057 872.5895283525144 296.7538129072767L872.5895283525144 296.7538129072767Q871.4717074871257 296.7538129072767 871.3367980723373 294.9614449679464L871.3367980723373 294.9614449679464Q871.201888657549 294.6723533648286 871.201888657549 294.2676251204638Q871.201888657549 293.84362410255767 871.201888657549 293.5738052729811L871.201888657549 293.5738052729811Q871.201888657549 293.0148948402867 871.2597069781726 292.59089382238056Q871.3367980723373 292.1861655780157 871.4717074871257 291.62725514532127L871.4717074871257 291.62725514532127Q872.1655273346083 290.5094342799325 872.3004367493967 289.1217945849671L872.3004367493967 289.1217945849671Q872.4546189377262 288.98688517017877 872.4546189377262 288.7170663406022L872.4546189377262 288.7170663406022Q872.4546189377262 288.0232464931195 871.4717074871257 287.040335042519L871.4717074871257 287.040335042519Q869.3902479446775 284.8239660852827 865.709148198311 284.2650556525883Q862.0473212254858 283.70614521989387 858.2891303849545 283.301416975529L858.2891303849545 283.301416975529Q857.8844021405896 283.1665075607407 857.3254917078953 283.1665075607407Q856.7665812752008 283.1665075607407 856.0727614277181 283.1665075607407L856.0727614277181 283.1665075607407Q853.2974820377874 283.1665075607407 849.6934733855857 283.51341748448203Q846.0894647333838 283.8603274082234 843.4490947582414 284.2650556525883Q840.8087247830989 284.6890566704943 840.8087247830989 284.6890566704943L840.8087247830989 284.6890566704943Q840.2498143504046 284.958875500071 839.979995520828 285.382876517977L839.979995520828 285.382876517977Q839.8450861060396 286.0766963654597 839.4981761822984 289.0639762643435Q839.151266258557 292.03198338968616 838.5923558258626 297.3127233399711L838.5923558258626 297.3127233399711L836.6458056982027 307.0262012047288L835.95198585072 309.66657117987126Q835.8170764359318 310.63020985693055 835.3352570974022 312.229850060849Q834.8341649853313 313.8294902647674 834.1403451378486 316.1807686367921L834.1403451378486 316.1807686367921L835.95198585072 316.1807686367921Q837.0698067161088 316.1807686367921 838.3032642227448 315.96876812783904Q839.5559945029219 315.7760403924272 840.9436341978873 315.4869487893094L840.9436341978873 315.4869487893094Q842.7552749107587 315.0822205449445 844.0658235115594 314.87022003599145Q845.3956448859012 314.6582195270384 846.2243741481722 314.5233101122501L846.2243741481722 314.5233101122501Q849.4043817824678 314.23421850913235 852.52657109614 314.04149077372045Q855.6487604098121 313.8294902647674 858.7131314028605 313.8294902647674L858.7131314028605 313.8294902647674Q860.5054993421909 313.8294902647674 860.5054993421909 316.6047696546982L860.5054993421909 316.6047696546982Q860.5054993421909 320.20877830689994 858.2891303849545 320.20877830689994L858.2891303849545 320.20877830689994Q855.2440321654472 320.20877830689994 852.2567522665634 320.420778815853Q849.2694723676794 320.63277932480605 846.2243741481722 320.90259815438264L846.2243741481722 320.90259815438264Q845.5305543006895 321.03750756917094 844.2007329263477 321.249508078124Q842.890184325547 321.46150858707705 841.0785436126756 321.86623683144194L841.0785436126756 321.86623683144194Q839.5559945029219 322.1553284345597 838.2454459021211 322.36732894351275Q836.9156245277794 322.56005667892464 835.8170764359318 322.56005667892464L835.8170764359318 322.56005667892464L831.9239761806122 322.56005667892464Q829.7076072233758 331.30989586662304 829.7076072233758 335.4728149515192L829.7076072233758 335.4728149515192Q829.1486967906815 338.11318492666163 828.4548769431988 342.199012917393Q827.7610570957161 346.3041136816656 827.0672372482334 351.7004902731977L827.0672372482334 351.7004902731977L826.9323278334451 354.47576966312846Q826.9323278334451 354.76486126624627 826.8552367392804 356.0754098670469Q826.7974184186568 357.4052312413887 826.9323278334451 359.62160019862506L826.9323278334451 359.62160019862506Q827.2021466630217 361.83796915586146 828.5897863579871 361.70305974107316L828.5897863579871 361.70305974107316Q829.2836062054697 361.4139681379554 830.7483369945999 361.00923989359046Q832.21306778373 360.58523887568435 834.4294367409665 360.31542004610776L834.4294367409665 360.31542004610776Q841.7723634601582 360.02632844299 845.5305543006895 359.0626897659307L845.5305543006895 359.0626897659307Q847.0531034104432 358.368869918448 852.0447517576102 356.42231979078826L852.0447517576102 356.42231979078826Q853.1625726229992 356.0175915464233 854.9549405623294 355.3815900195642Q856.7665812752008 354.76486126624627 859.4069512503432 354.07104141876357L859.4069512503432 354.07104141876357Q861.3535013780031 353.64704040085746 865.3622382745697 351.98958187631547L865.3622382745697 351.98958187631547L869.8142489625837 348.0964816209959Q870.5080688100664 347.691753376631 870.7778876396429 347.691753376631L870.7778876396429 347.691753376631Q872.7244377673027 347.691753376631 872.7244377673027 350.7368515961384L872.7244377673027 350.7368515961384Q872.7244377673027 352.5484923090099 871.4717074871257 353.78194981564576L871.4717074871257 353.78194981564576L867.1738789874412 357.9448689005419Q865.5164204628992 359.197599180719 863.4349609204511 359.62160019862506L863.4349609204511 359.62160019862506L860.1007710978259 360.31542004610776Q858.9829502324372 360.4503294608961 857.1134911989421 361.14414930837876Q855.2440321654472 361.83796915586146 852.7385716050931 362.80160783292075L852.7385716050931 362.80160783292075Q851.7749329280338 363.36051826561516 850.040383309327 363.99651979247426Q848.3058336906203 364.6132485457922 845.6654637154778 365.5768872228515L845.6654637154778 365.5768872228515Q843.4490947582414 366.1357976555459 840.5967242741459 366.4248892586637Q837.7636265635916 366.6947080882403 834.4294367409665 366.6947080882403L834.4294367409665 366.6947080882403L834.4294367409665 366.8296175030286Q832.21306778373 367.388527935723 829.9196077323289 367.60052844467606Q827.6261476809278 367.8125289536291 825.2748693089031 367.8125289536291ZM884.3844657597202 367.6583467652996L884.3844657597202 367.6583467652996Q880.9153665223067 367.6583467652996 878.4869970561173 366.4248892586637Q876.0586275899279 365.1721589784866 876.0586275899279 362.95579002125027L876.0586275899279 362.95579002125027Q876.0586275899279 361.4139681379554 877.4462672848932 361.4139681379554L877.4462672848932 361.4139681379554Q877.3113578701051 361.4139681379554 879.6626362421297 362.3197884943911Q882.0139146141544 363.22560885082686 884.6542845892967 363.22560885082686L884.6542845892967 363.22560885082686Q892.7103039295125 363.22560885082686 894.7917634719606 355.72849994330556L894.7917634719606 355.72849994330556Q895.6204927342316 352.5484923090099 888.9521130889813 345.1862928162769L888.9521130889813 345.1862928162769Q884.2495563449319 340.05973505432144 884.2495563449319 333.5262648238594L884.2495563449319 333.5262648238594Q884.2495563449319 331.30989586662304 886.1768336990505 328.3226159677392Q888.1233838267102 325.3353360688554 890.898663216641 323.06114879099545Q893.6739426065718 320.76768873959435 896.1794031669259 320.76768873959435L896.1794031669259 320.76768873959435Q900.6121410813988 320.76768873959435 901.1710515140932 322.9840576968307L901.1710515140932 322.9840576968307Q901.3059609288814 323.4080587147368 901.3830520230462 323.8127869591017Q901.4408703436698 324.2367879770078 901.4408703436698 324.6415162213727L901.4408703436698 324.6415162213727Q901.4408703436698 326.87715795215024 899.7834118191278 326.87715795215024L899.7834118191278 326.87715795215024Q898.8197731420685 326.87715795215024 898.260862709374 326.18333810466754L898.260862709374 326.18333810466754Q897.5670428618913 325.4895182571849 896.3143125817143 325.4895182571849L896.3143125817143 325.4895182571849Q896.0444937521378 325.4895182571849 895.6204927342316 325.4895182571849Q895.1964917163256 325.4895182571849 894.9266728867489 325.7593370867615L894.9266728867489 325.7593370867615Q889.9350245395817 328.26479764711564 889.2412046920991 332.6975355615884L889.2412046920991 332.6975355615884Q888.6822942594047 336.59063581690793 895.1964917163256 343.5288342917349L895.1964917163256 343.5288342917349Q901.0361420993048 349.7732129190791 901.0361420993048 355.16958951061116L901.0361420993048 355.16958951061116Q901.0361420993048 361.14414930837876 894.9266728867489 364.74815796058056L894.9266728867489 364.74815796058056Q890.2048433691583 367.6583467652996 884.3844657597202 367.6583467652996ZM917.6878184388894 365.8659788259693L917.6878184388894 365.8659788259693Q912.4070784886045 365.8659788259693 909.2270708543089 360.87433047880216L909.2270708543089 360.87433047880216Q906.5867008791664 356.8463208086943 906.5867008791664 352.12449129110377L906.5867008791664 352.12449129110377Q906.5867008791664 346.9979335291483 908.0321588947553 342.48810452051083Q909.4968896838855 337.97827551187333 912.1372596590279 334.0851752565538L912.1372596590279 334.0851752565538Q917.9576372684661 325.7593370867615 926.7074764561645 325.7593370867615L926.7074764561645 325.7593370867615Q929.7525746756718 325.7593370867615 931.6220337091669 328.0527971381626Q933.5107655162032 330.34625718956374 933.0867644982969 332.8324449763767L933.0867644982969 332.8324449763767Q932.3929446508142 336.8604546464845 930.1765756935778 336.8604546464845L930.1765756935778 336.8604546464845Q929.1936642429774 336.8604546464845 929.1936642429774 335.89681596942523L929.1936642429774 335.89681596942523Q929.1936642429774 335.3379055367309 929.6176652608835 334.7789951040365L929.6176652608835 334.7789951040365L929.4827558460952 334.7789951040365Q930.0416662787896 334.0851752565538 930.0416662787896 332.96735439116503L930.0416662787896 332.96735439116503Q930.0416662787896 331.44480528141133 928.7118449044477 330.269166095399Q927.4012963036472 329.09352690938664 925.8787471938934 329.09352690938664L925.8787471938934 329.09352690938664Q919.7692779813375 329.09352690938664 915.3172672933237 336.9953640612729L915.3172672933237 336.9953640612729Q911.4434398115452 343.7986531213115 911.4434398115452 351.29576202883277L911.4434398115452 351.29576202883277Q911.4434398115452 355.03468009582286 913.3899899392051 357.8099594857536L913.3899899392051 357.8099594857536Q915.471449481653 361.00923989359046 919.0754581338548 361.00923989359046L919.0754581338548 361.00923989359046Q925.1849273464107 361.00923989359046 930.5813039379428 356.711411393906L930.5813039379428 356.711411393906Q931.1402143706372 356.1525009612116 931.9689436329082 356.1525009612116L931.9689436329082 356.1525009612116Q933.3565833278735 356.1525009612116 933.3565833278735 357.8099594857536L933.3565833278735 357.8099594857536Q933.3565833278735 358.92778035114236 932.5278540656026 359.75650961341336L932.5278540656026 359.75650961341336Q927.2663868888588 365.8659788259693 917.6878184388894 365.8659788259693ZM949.8733502526699 367.5234373505113L949.8733502526699 367.5234373505113Q943.7638810401139 367.5234373505113 939.9478718789592 363.78451928352126Q936.1318627178043 360.02632844299 936.1318627178043 353.64704040085746L936.1318627178043 353.64704040085746Q936.1318627178043 352.25940070589206 936.3438632267574 350.87176101092666Q936.5558637357104 349.4841213159613 936.8256825652871 348.0964816209959L936.8256825652871 348.0964816209959Q938.3675044485818 342.1411945967695 945.3057029234088 335.3379055367309L945.3057029234088 335.3379055367309Q953.0726306605067 327.9757060439979 958.7580988551566 327.9757060439979L958.7580988551566 327.9757060439979Q963.4799283727472 327.9757060439979 963.1908367696293 333.2564459942828L963.1908367696293 333.2564459942828Q963.055927354841 340.05973505432144 955.7130006356491 346.5739325112422L955.7130006356491 346.5739325112422Q952.5137202278123 349.2143024863847 949.1217120845637 351.43067144362107Q945.7104311677737 353.64704040085746 941.9715131007837 353.64704040085746L941.9715131007837 353.64704040085746L941.8366036859953 353.64704040085746Q942.2413319303603 362.66669841813246 951.1260805328469 362.66669841813246L951.1260805328469 362.66669841813246Q954.0362693375661 362.66669841813246 957.6402779897677 361.27905872316705L957.6402779897677 361.27905872316705Q957.9293695928856 361.14414930837876 958.4882800255799 361.14414930837876L958.4882800255799 361.14414930837876Q960.2806479649101 361.14414930837876 960.2806479649101 362.95579002125027L960.2806479649101 362.95579002125027Q960.2806479649101 364.18924752788615 959.0279176847331 364.88306737536885L959.0279176847331 364.88306737536885Q955.1540902029548 367.5234373505113 949.8733502526699 367.5234373505113ZM945.5755217529854 347.1328429439366L945.5755217529854 347.1328429439366Q949.8733502526699 346.14993149333617 952.9377212457184 343.5288342917349L952.9377212457184 343.5288342917349Q958.3340978372505 338.9419141889326 958.3340978372505 334.7789951040365L958.3340978372505 334.7789951040365L958.3340978372505 334.5091762744599Q958.3340978372505 333.5262648238594 957.6402779897677 332.96735439116503Q956.9464581422851 332.4277167320118 956.6766393127085 332.6975355615884L956.6766393127085 332.6975355615884Q952.378810813024 332.6975355615884 947.5220718806452 338.9419141889326L947.5220718806452 338.9419141889326Q946.8282520331625 339.9055528659919 945.845340582562 341.5051930699103Q944.8817019055027 343.1048332738288 943.7638810401139 345.3212022310652L943.7638810401139 345.3212022310652Q943.6289716253256 345.6102938341829 943.6289716253256 345.8801126637595L943.6289716253256 345.8801126637595Q943.6289716253256 347.1328429439366 945.5755217529854 347.1328429439366ZM970.1290352444563 363.6496098687329L970.1290352444563 363.6496098687329Q968.0475757020082 363.6496098687329 968.6064861347025 359.8914190282017L968.6064861347025 359.8914190282017Q969.0304871526087 355.03468009582286 970.0712169238327 347.88448111204286Q971.1119466950566 340.75355490180414 972.6344958048104 331.30989586662304L972.6344958048104 331.30989586662304Q973.3283156522931 329.22843632417494 974.8508647620469 329.22843632417494L974.8508647620469 329.22843632417494Q976.7974148897066 329.22843632417494 976.7974148897066 331.04007703704644L976.7974148897066 331.04007703704644Q976.7974148897066 331.17498645183474 976.7974148897066 331.52189637557603Q976.7974148897066 331.8688062993174 976.6625054749182 332.27353454368233L976.6625054749182 332.27353454368233Q976.3734138718004 333.5262648238594 976.1806861363885 334.99099561298954Q975.9686856274355 336.4364536285785 975.9686856274355 338.11318492666163L975.9686856274355 338.11318492666163Q975.9686856274355 340.05973505432144 976.1806861363885 342.2761040115578Q976.3734138718004 344.4924729687942 976.932324304495 346.9979335291483L976.932324304495 346.9979335291483Q977.7610535667658 346.9979335291483 983.7356133645335 341.02337373138073L983.7356133645335 341.02337373138073Q989.7101731623011 335.3379055367309 993.4490912292912 334.2200846713421L993.4490912292912 334.2200846713421L993.4490912292912 334.0851752565538Q993.8730922471972 333.9502658417655 994.2778204915622 333.9502658417655Q994.7018215094682 333.9502658417655 994.9716403390449 333.9502658417655L994.9716403390449 333.9502658417655Q997.6120103141874 333.9502658417655 998.4407395764583 336.4364536285785L998.4407395764583 336.4364536285785L1000.3872897041181 349.349211901173Q1001.6400199842952 357.8099594857536 1004.9742098069203 357.8099594857536L1004.9742098069203 357.8099594857536Q1006.3618495018857 357.8099594857536 1007.7494891968511 356.8463208086943L1007.7494891968511 356.8463208086943Q1009.6767665509697 355.4586811137289 1011.4884072638412 353.8590409098105Q1013.3000479767126 352.25940070589206 1014.687687671678 350.4670327665618L1014.687687671678 350.4670327665618Q1015.516416933949 350.177941163444 1015.7862357635256 350.177941163444L1015.7862357635256 350.177941163444Q1016.7691472141261 350.177941163444 1016.7691472141261 351.43067144362107L1016.7691472141261 351.43067144362107Q1016.7691472141261 352.25940070589206 1015.6513263487373 353.64704040085746L1015.6513263487373 353.64704040085746Q1013.8396856358657 355.8634093580938 1011.9124082817472 358.15686940949496Q1009.9658581540874 360.4503294608961 1008.0193080264277 361.70305974107316L1008.0193080264277 361.70305974107316Q1005.3789380512852 363.22560885082686 1003.586570111955 363.22560885082686L1003.586570111955 363.22560885082686Q999.8283792714237 363.22560885082686 997.8818291437639 357.1161396382709L997.8818291437639 357.1161396382709L995.5305507717392 345.8801126637595Q994.2778204915622 340.19464446910973 992.3312703639024 340.75355490180414L992.3312703639024 340.75355490180414Q992.1963609491141 340.75355490180414 991.9843604401611 340.6764638076394Q991.7916327047492 340.5993727134746 991.5025411016314 340.5993727134746L991.5025411016314 340.5993727134746Q990.943630668937 340.5993727134746 990.1919925008308 340.8884643165924Q989.4210815591833 341.158283146169 988.7272617117006 341.85210299365167L988.7272617117006 341.85210299365167L985.3930718890755 345.3212022310652Q981.095243389391 349.7732129190791 978.1850545846719 353.9361320039752Q975.2748657799528 358.0990510888714 973.4632250670815 361.70305974107316L973.4632250670815 361.70305974107316Q972.3646769752338 363.6496098687329 970.1290352444563 363.6496098687329ZM1018.9855161713625 367.6583467652996L1018.9855161713625 367.6583467652996Q1015.516416933949 367.6583467652996 1013.0880474677596 366.4248892586637Q1010.6596780015702 365.1721589784866 1010.6596780015702 362.95579002125027L1010.6596780015702 362.95579002125027Q1010.6596780015702 361.4139681379554 1012.0473176965355 361.4139681379554L1012.0473176965355 361.4139681379554Q1011.9124082817472 361.4139681379554 1014.263686653772 362.3197884943911Q1016.6149650257966 363.22560885082686 1019.255335000939 363.22560885082686L1019.255335000939 363.22560885082686Q1027.3113543411546 363.22560885082686 1029.3928138836027 355.72849994330556L1029.3928138836027 355.72849994330556Q1030.221543145874 352.5484923090099 1023.5531635006236 345.1862928162769L1023.5531635006236 345.1862928162769Q1018.8506067565742 340.05973505432144 1018.8506067565742 333.5262648238594L1018.8506067565742 333.5262648238594Q1018.8506067565742 331.30989586662304 1020.7778841106928 328.3226159677392Q1022.7244342383525 325.3353360688554 1025.4997136282832 323.06114879099545Q1028.274993018214 320.76768873959435 1030.780453578568 320.76768873959435L1030.780453578568 320.76768873959435Q1035.213191493041 320.76768873959435 1035.7721019257356 322.9840576968307L1035.7721019257356 322.9840576968307Q1035.9070113405237 323.4080587147368 1035.9841024346883 323.8127869591017Q1036.0419207553118 324.2367879770078 1036.0419207553118 324.6415162213727L1036.0419207553118 324.6415162213727Q1036.0419207553118 326.87715795215024 1034.3844622307702 326.87715795215024L1034.3844622307702 326.87715795215024Q1033.4208235537108 326.87715795215024 1032.8619131210162 326.18333810466754L1032.8619131210162 326.18333810466754Q1032.1680932735335 325.4895182571849 1030.9153629933567 325.4895182571849L1030.9153629933567 325.4895182571849Q1030.64554416378 325.4895182571849 1030.221543145874 325.4895182571849Q1029.7975421279677 325.4895182571849 1029.5277232983913 325.7593370867615L1029.5277232983913 325.7593370867615Q1024.536074951224 328.26479764711564 1023.8422551037412 332.6975355615884L1023.8422551037412 332.6975355615884Q1023.2833446710468 336.59063581690793 1029.7975421279677 343.5288342917349L1029.7975421279677 343.5288342917349Q1035.637192510947 349.7732129190791 1035.637192510947 355.16958951061116L1035.637192510947 355.16958951061116Q1035.637192510947 361.14414930837876 1029.5277232983913 364.74815796058056L1029.5277232983913 364.74815796058056Q1024.8058937808005 367.6583467652996 1018.9855161713625 367.6583467652996ZM1050.0724998932953 318.68622919714625L1050.0724998932953 318.68622919714625Q1047.991040350847 318.68622919714625 1048.1259497656356 316.1807686367921L1048.1259497656356 316.1807686367921L1049.513589460601 310.91930146004836Q1049.9183177049658 309.3774795767535 1051.4601395882605 309.3774795767535L1051.4601395882605 309.3774795767535Q1054.6401472225564 309.3774795767535 1054.081236789862 312.01784955189595L1054.081236789862 312.01784955189595Q1053.9463273750737 313.9643996795557 1053.1175981128026 316.3156780515804Q1052.2888688505318 318.68622919714625 1050.0724998932953 318.68622919714625ZM1045.2157609609164 362.39687958855586L1045.2157609609164 362.39687958855586Q1043.9630306807394 362.39687958855586 1043.5390296628334 361.27905872316705L1043.5390296628334 361.27905872316705Q1042.9801192301388 359.75650961341336 1042.8452098153507 357.540140656177Q1042.7103004005621 355.3237716989406 1042.8452098153507 352.5484923090099L1042.8452098153507 352.5484923090099Q1043.1343014184686 349.349211901173 1044.4448500192689 344.4924729687942Q1045.7553986200696 339.63573403641533 1048.1259497656356 333.2564459942828L1048.1259497656356 333.2564459942828Q1048.68486019833 331.8688062993174 1050.0724998932953 331.8688062993174L1050.0724998932953 331.8688062993174Q1052.6935970948966 331.8688062993174 1051.8648678326258 334.2200846713421L1051.8648678326258 334.2200846713421Q1051.3059573999312 336.0317253842136 1050.9012291555664 337.8240933235438Q1050.4772281376604 339.63573403641533 1050.0724998932953 341.44737474928684L1050.0724998932953 341.44737474928684Q1049.3786800458124 344.62738238358247 1048.9546790279064 347.1328429439366Q1048.5306780100004 349.6190307307496 1048.5306780100004 351.56558085840936L1048.5306780100004 351.56558085840936Q1048.5306780100004 358.368869918448 1048.68486019833 358.6386887480246L1048.68486019833 358.6386887480246Q1049.089588442695 360.02632844299 1047.8368581625177 361.2212404025435Q1046.6034006558816 362.39687958855586 1045.2157609609164 362.39687958855586ZM1096.693339089424 366.2707070703342L1096.693339089424 366.2707070703342Q1095.9995192419412 366.2707070703342 1095.440608809247 365.731069411181L1095.440608809247 365.731069411181Q1091.701690742257 361.83796915586146 1091.5475085539274 354.34086024834016L1091.5475085539274 354.34086024834016Q1091.5475085539274 353.78194981564576 1091.701690742257 353.0303116475395Q1091.8366001570453 352.25940070589206 1091.8366001570453 351.29576202883277L1091.8366001570453 351.29576202883277L1091.9715095718334 348.3855732241137L1091.9715095718334 347.9615722062076Q1091.9715095718334 345.45611164585347 1090.159868858962 346.14993149333617L1090.159868858962 346.14993149333617Q1087.3845894690312 348.0964816209959 1082.7398510456053 351.7775813673625Q1078.0951126221796 355.4586811137289 1071.5809151652588 360.72014829047265L1071.5809151652588 360.72014829047265Q1068.805635775328 363.36051826561516 1064.4885345021025 363.36051826561516L1064.4885345021025 363.36051826561516Q1062.0023467152894 363.36051826561516 1060.2677970965829 360.6623299698491Q1058.5332474778759 357.9448689005419 1058.937975722241 355.4586811137289L1058.937975722241 355.4586811137289Q1059.361976740147 351.8546724615272 1061.867437300501 347.61466228246627Q1064.353625087314 343.3746521034054 1068.0347248336807 339.1539146978857Q1071.715824580047 334.9139045188248 1075.9365619855666 331.6568057903644Q1080.1765721646275 328.39970706190394 1084.0696724199472 327.0120673669386L1084.0696724199472 327.0120673669386Q1085.592221529701 326.4531569342442 1086.9798612246664 326.18333810466754Q1088.3675009196318 325.8942465015498 1089.7551406145972 325.8942465015498L1089.7551406145972 325.8942465015498Q1095.7104276388236 325.8942465015498 1095.7104276388236 330.05716558644593L1095.7104276388236 330.05716558644593Q1095.7104276388236 331.44480528141133 1094.611879546976 331.44480528141133L1094.611879546976 331.44480528141133Q1094.1878785290696 331.44480528141133 1093.7831502847048 331.38698696078774Q1093.3591492667988 331.30989586662304 1092.9351482488928 331.04007703704644L1092.9351482488928 331.04007703704644Q1090.4489604620799 328.95861749459834 1088.3675009196318 328.95861749459834L1088.3675009196318 328.95861749459834Q1086.2860413771837 328.95861749459834 1082.2580317070756 331.44480528141133L1082.2580317070756 331.44480528141133Q1079.0587512992388 333.3913554090711 1076.0136530797315 336.3015442137902Q1072.9685548602242 339.2117330185092 1070.1932754702934 342.8350144442522L1070.1932754702934 342.8350144442522Q1067.5529054951508 346.3041136816656 1066.0303563853972 349.00230197743167Q1064.4885345021025 351.7004902731977 1064.2187156725258 353.78194981564576L1064.2187156725258 353.78194981564576Q1064.0838062577373 354.34086024834016 1064.0838062577373 355.16958951061116L1064.0838062577373 355.16958951061116Q1064.0838062577373 357.4052312413887 1065.876174197068 357.4052312413887L1065.876174197068 357.4052312413887Q1068.1118159278453 357.4052312413887 1074.20201236686 353.37722157128087L1074.20201236686 353.37722157128087Q1088.7722291639966 343.6637437065232 1094.4769701321877 336.1666347990018L1094.4769701321877 336.1666347990018Q1095.864609827153 334.3549940861304 1096.9631579190004 331.30989586662304L1096.9631579190004 331.30989586662304Q1097.6569777664834 329.36334573896323 1099.8733467237196 329.36334573896323L1099.8733467237196 329.36334573896323Q1102.378807284074 329.36334573896323 1102.378807284074 332.13862512889403L1102.378807284074 332.13862512889403Q1102.378807284074 334.3549940861304 1100.2973477416258 337.6891839087556L1100.2973477416258 337.6891839087556Q1096.9631579190004 347.8266627914193 1096.9631579190004 351.7004902731977L1096.9631579190004 351.7004902731977Q1097.2522495221183 357.6750500709653 1099.8733467237196 361.27905872316705L1099.8733467237196 361.27905872316705Q1100.2973477416258 361.70305974107316 1100.2973477416258 362.39687958855586L1100.2973477416258 362.39687958855586Q1100.2973477416258 363.6496098687329 1099.0446174614485 364.96015846953355Q1097.7918871812717 366.2707070703342 1096.693339089424 366.2707070703342Z " fill="#073607" transform="matrix(0.793738047582684,0,0,0.793738047582684,0,25.07169529818998)"/></g></svg>